<mxfile host="app.diagrams.net" modified="2020-12-10T13:12:46.311Z" agent="5.0 (Windows NT 10.0; Win64; x64) AppleWebKit/537.36 (KHTML, like Gecko) Chrome/87.0.4280.88 Safari/537.36" etag="W1JJ_TriYI4xpqzGpVTe" version="14.0.0" type="github">
  <diagram id="buOECwKc94wdo1IOmjxp" name="Page-1">
    <mxGraphModel dx="1038" dy="548" grid="1" gridSize="10" guides="1" tooltips="1" connect="1" arrows="1" fold="1" page="1" pageScale="1" pageWidth="827" pageHeight="1169" math="0" shadow="0">
      <root>
        <mxCell id="0" />
        <mxCell id="1" parent="0" />
        <mxCell id="N90cMdtXfvUUH7P5M9Wo-3" value="" style="rounded=0;orthogonalLoop=1;jettySize=auto;html=1;entryX=0.5;entryY=1;entryDx=0;entryDy=0;exitX=0.25;exitY=0;exitDx=0;exitDy=0;" edge="1" parent="1" source="N90cMdtXfvUUH7P5M9Wo-1" target="N90cMdtXfvUUH7P5M9Wo-2">
          <mxGeometry relative="1" as="geometry" />
        </mxCell>
        <mxCell id="N90cMdtXfvUUH7P5M9Wo-1" value="トップ画面&lt;br&gt;index" style="rounded=0;whiteSpace=wrap;html=1;" vertex="1" parent="1">
          <mxGeometry x="280" y="240" width="200" height="80" as="geometry" />
        </mxCell>
        <mxCell id="N90cMdtXfvUUH7P5M9Wo-5" value="" style="edgeStyle=none;rounded=0;orthogonalLoop=1;jettySize=auto;html=1;" edge="1" parent="1" source="N90cMdtXfvUUH7P5M9Wo-2" target="N90cMdtXfvUUH7P5M9Wo-4">
          <mxGeometry relative="1" as="geometry" />
        </mxCell>
        <mxCell id="N90cMdtXfvUUH7P5M9Wo-10" style="edgeStyle=none;rounded=0;orthogonalLoop=1;jettySize=auto;html=1;exitX=0.25;exitY=1;exitDx=0;exitDy=0;entryX=0;entryY=0;entryDx=0;entryDy=0;" edge="1" parent="1" source="N90cMdtXfvUUH7P5M9Wo-2" target="N90cMdtXfvUUH7P5M9Wo-1">
          <mxGeometry relative="1" as="geometry" />
        </mxCell>
        <mxCell id="N90cMdtXfvUUH7P5M9Wo-2" value="記事一覧画面&lt;br&gt;articleList" style="rounded=0;whiteSpace=wrap;html=1;" vertex="1" parent="1">
          <mxGeometry x="120" y="80" width="200" height="80" as="geometry" />
        </mxCell>
        <mxCell id="N90cMdtXfvUUH7P5M9Wo-8" style="edgeStyle=none;rounded=0;orthogonalLoop=1;jettySize=auto;html=1;exitX=0.5;exitY=1;exitDx=0;exitDy=0;entryX=0.75;entryY=0;entryDx=0;entryDy=0;" edge="1" parent="1" source="N90cMdtXfvUUH7P5M9Wo-4" target="N90cMdtXfvUUH7P5M9Wo-1">
          <mxGeometry relative="1" as="geometry" />
        </mxCell>
        <mxCell id="N90cMdtXfvUUH7P5M9Wo-9" style="edgeStyle=none;rounded=0;orthogonalLoop=1;jettySize=auto;html=1;exitX=0;exitY=0.25;exitDx=0;exitDy=0;entryX=1;entryY=0.25;entryDx=0;entryDy=0;" edge="1" parent="1" source="N90cMdtXfvUUH7P5M9Wo-4" target="N90cMdtXfvUUH7P5M9Wo-2">
          <mxGeometry relative="1" as="geometry" />
        </mxCell>
        <mxCell id="N90cMdtXfvUUH7P5M9Wo-4" value="記事画面&lt;br&gt;article" style="rounded=0;whiteSpace=wrap;html=1;" vertex="1" parent="1">
          <mxGeometry x="440" y="80" width="200" height="80" as="geometry" />
        </mxCell>
        <mxCell id="N90cMdtXfvUUH7P5M9Wo-11" value="" style="ellipse;whiteSpace=wrap;html=1;aspect=fixed;fillColor=#f8cecc;strokeColor=#b85450;" vertex="1" parent="1">
          <mxGeometry x="480" y="180" width="30" height="30" as="geometry" />
        </mxCell>
        <mxCell id="N90cMdtXfvUUH7P5M9Wo-14" value="" style="ellipse;whiteSpace=wrap;html=1;aspect=fixed;fillColor=#f8cecc;strokeColor=#b85450;" vertex="1" parent="1">
          <mxGeometry x="205" y="180" width="30" height="30" as="geometry" />
        </mxCell>
      </root>
    </mxGraphModel>
  </diagram>
</mxfile>
